<svg width="20" height="20" viewBox="0 0 20 20" fill="none"
    xmlns="http://www.w3.org/2000/svg">
    <path d="M15.8064 12.3893C15.397 11.9629 14.9031 11.735 14.3797 11.735C13.8605 11.735 13.3624 11.9587 12.936 12.3851L11.6022 13.7147C11.4924 13.6556 11.3827 13.6007 11.2771 13.5459C11.1252 13.4699 10.9816 13.3981 10.8592 13.3222C9.60978 12.5286 8.47429 11.4944 7.38524 10.1563C6.8576 9.48936 6.50302 8.92795 6.24553 8.3581C6.59166 8.04151 6.91247 7.71226 7.22483 7.39568C7.34303 7.27749 7.46122 7.15507 7.57941 7.03688C8.46585 6.15044 8.46585 5.00229 7.57941 4.11585L6.42704 2.96348C6.29618 2.83263 6.16111 2.69755 6.03447 2.56248C5.78121 2.30077 5.51527 2.03061 5.2409 1.77734C4.83145 1.37211 4.3418 1.15684 3.82682 1.15684C3.31184 1.15684 2.81375 1.37211 2.39163 1.77734L2.38319 1.78579L0.948004 3.23364C0.407699 3.77394 0.099556 4.43244 0.0320178 5.19647C-0.0692895 6.42904 0.293728 7.57719 0.572323 8.32855C1.25615 10.1732 2.27766 11.8827 3.80149 13.7147C5.65035 15.9224 7.87489 17.6657 10.416 18.8941C11.3869 19.3542 12.6828 19.8987 14.1306 19.9915C14.2193 19.9958 14.3121 20 14.3965 20C15.3716 20 16.1905 19.6496 16.8321 18.9532C16.8364 18.9447 16.8448 18.9405 16.849 18.932C17.0685 18.6661 17.3218 18.4255 17.5877 18.168C17.7692 17.995 17.955 17.8134 18.1365 17.6235C18.5544 17.1887 18.7739 16.6822 18.7739 16.163C18.7739 15.6396 18.5501 15.1372 18.1238 14.7151L15.8064 12.3893ZM17.3176 16.8341C17.3134 16.8384 17.3134 16.8341 17.3176 16.8341C17.1529 17.0114 16.9841 17.1718 16.8026 17.3491C16.5282 17.6108 16.2496 17.8852 15.9879 18.1933C15.5616 18.6492 15.0593 18.8645 14.4008 18.8645C14.3374 18.8645 14.2699 18.8645 14.2066 18.8603C12.9529 18.7801 11.7879 18.2904 10.9141 17.8725C8.52494 16.7159 6.42704 15.0739 4.68371 12.9929C3.2443 11.258 2.28188 9.65399 1.64449 7.93176C1.25193 6.8807 1.10841 6.0618 1.17172 5.28933C1.21394 4.79546 1.40389 4.38601 1.75424 4.03565L3.19365 2.59624C3.40048 2.40207 3.61998 2.29654 3.83526 2.29654C4.10119 2.29654 4.31647 2.45695 4.45155 2.59202L4.46421 2.60469C4.7217 2.84529 4.96653 3.09434 5.22402 3.36027C5.35487 3.49535 5.48995 3.63042 5.62502 3.76972L6.77739 4.92209C7.22483 5.36953 7.22483 5.7832 6.77739 6.23064C6.65498 6.35306 6.53679 6.47547 6.41438 6.59366C6.0598 6.95668 5.72211 7.29437 5.35487 7.62362C5.34643 7.63206 5.33799 7.63628 5.33377 7.64472C4.97075 8.00774 5.03829 8.36232 5.11427 8.60292L5.12693 8.64091C5.42663 9.36695 5.84874 10.0508 6.49036 10.8655L6.49458 10.8697C7.65961 12.3049 8.88796 13.4235 10.2429 14.2804C10.416 14.3901 10.5933 14.4787 10.7621 14.5632C10.9141 14.6391 11.0576 14.7109 11.18 14.7869C11.1969 14.7953 11.2138 14.808 11.2307 14.8164C11.3742 14.8882 11.5093 14.922 11.6486 14.922C11.9989 14.922 12.2184 14.7025 12.2902 14.6307L13.7338 13.1871C13.8773 13.0436 14.1053 12.8705 14.3712 12.8705C14.6329 12.8705 14.8482 13.0351 14.9791 13.1786L14.9875 13.1871L17.3134 15.5129C17.7481 15.9435 17.7481 16.3867 17.3176 16.8341ZM10.8086 4.75747C11.9145 4.9432 12.9191 5.46662 13.7212 6.26863C14.5232 7.07065 15.0424 8.07528 15.2323 9.18122C15.2788 9.45981 15.5194 9.65399 15.7937 9.65399C15.8275 9.65399 15.8571 9.64976 15.8908 9.64554C16.2032 9.59489 16.41 9.29941 16.3594 8.98705C16.1314 7.64895 15.4983 6.42904 14.5316 5.4624C13.565 4.49576 12.3451 3.86259 11.007 3.63464C10.6946 3.58399 10.4034 3.79083 10.3485 4.09897C10.2936 4.40711 10.4962 4.70681 10.8086 4.75747ZM19.9769 8.82242C19.6012 6.61899 18.5628 4.61395 16.9672 3.01836C15.3716 1.42277 13.3666 0.384369 11.1632 0.00868772C10.855 -0.0461871 10.5638 0.16487 10.5089 0.473013C10.4582 0.785377 10.6651 1.07664 10.9774 1.13151C12.9445 1.46498 14.7385 2.39785 16.1652 3.82037C17.5919 5.24712 18.5206 7.0411 18.8541 9.00815C18.9005 9.28675 19.1411 9.48092 19.4155 9.48092C19.4492 9.48092 19.4788 9.4767 19.5126 9.47248C19.8207 9.42604 20.0318 9.13056 19.9769 8.82242Z" fill="#324A34"/>
</svg>
