<svg width="33" height="31" viewBox="0 0 33 31" fill="none"
    xmlns="http://www.w3.org/2000/svg">
    <path d="M30.1537 21.6661L29.1036 21.3604C29.8 18.9554 29.7988 16.4021 29.1 13.9978L30.1499 13.6911C30.907 16.2953 30.9084 19.0611 30.1537 21.6661ZM2.85005 21.6793C2.09293 19.075 2.0916 16.3092 2.84622 13.7042L3.89636 14.0099C3.20004 16.4148 3.20128 18.968 3.89991 21.3722L2.85005 21.6793ZM32.274 22.2105L31.2225 21.9098C32.0609 18.9678 32.0046 15.8428 31.0609 12.9329L32.1007 12.5939C33.1121 15.7111 33.1724 19.0589 32.274 22.2105ZM0.725986 22.2105C-0.172469 19.0589 -0.112142 15.711 0.899277 12.5938L1.93943 12.9328C0.995534 15.8427 0.939159 18.9677 1.77749 21.9098L0.725986 22.2105Z" fill="#7B81C6"/>
    <path d="M25.7272 20.3534C25.4579 20.0845 25.2487 19.8749 25.2487 19.8749V13.039C25.2487 12.5314 25.047 12.0445 24.688 11.6855C24.3291 11.3266 23.8422 11.1249 23.3346 11.1249C22.827 11.1249 22.3401 11.3266 21.9812 11.6855C21.6222 12.0445 21.4205 12.5314 21.4205 13.039V17.1406L13.7643 9.48431C13.6207 9.34067 13.4501 9.22673 13.2625 9.149C13.0748 9.07126 12.8737 9.03125 12.6705 9.03125C12.4674 9.03125 12.2663 9.07126 12.0786 9.149C11.8909 9.22673 11.7204 9.34067 11.5768 9.48431C11.4332 9.62794 11.3192 9.79846 11.2415 9.98612C11.1637 10.1738 11.1237 10.3749 11.1237 10.5781C11.1237 10.7812 11.1637 10.9823 11.2415 11.17C11.3192 11.3577 11.4332 11.5282 11.5768 11.6718L10.483 10.5781C10.3394 10.4344 10.1689 10.3205 9.98122 10.2427C9.79356 10.165 9.59242 10.125 9.38929 10.125C9.18616 10.125 8.98502 10.165 8.79735 10.2427C8.60969 10.3205 8.43917 10.4344 8.29554 10.5781C8.1519 10.7217 8.03796 10.8922 7.96023 11.0799C7.88249 11.2675 7.84248 11.4687 7.84248 11.6718C7.84248 11.8749 7.88249 12.0761 7.96023 12.2637C8.03796 12.4514 8.1519 12.6219 8.29554 12.7656L9.38929 13.8593C9.0992 13.5692 8.70577 13.4063 8.29554 13.4063C7.88531 13.4063 7.49187 13.5692 7.20179 13.8593C7.05815 14.0029 6.94421 14.1735 6.86648 14.3611C6.78874 14.5488 6.74873 14.7499 6.74873 14.9531C6.74873 15.1562 6.78874 15.3573 6.86648 15.545C6.94421 15.7327 7.05815 15.9032 7.20179 16.0468L8.84699 17.692C8.55569 17.4007 8.16061 17.2371 7.74866 17.2371C7.33671 17.2371 6.94164 17.4007 6.65033 17.692C6.3606 17.9817 6.19705 18.3741 6.19533 18.7839C6.1936 19.1936 6.35382 19.5874 6.6411 19.8795L16.4297 29.6652C17.1748 30.4004 18.1795 30.8125 19.2262 30.8124C20.2813 30.8124 21.2933 30.3936 22.0398 29.6479L25.7593 25.9325C26.1176 25.5745 26.4018 25.1494 26.5957 24.6815C26.7896 24.2136 26.8893 23.7121 26.8893 23.2056V23.1643C26.89 22.6423 26.7877 22.1254 26.5883 21.643C26.3889 21.1607 26.0963 20.7225 25.7272 20.3534Z" fill="#ECB347"/>
    <path d="M25.762 24.8369L22.0425 28.5524C21.2961 29.2979 20.2842 29.7168 19.2292 29.7169C18.1827 29.7168 17.1783 29.3046 16.4333 28.5696L6.64427 18.7839C6.49252 18.6295 6.37488 18.4449 6.29898 18.2422C6.19452 18.5193 6.17152 18.8206 6.2327 19.1103C6.29388 19.4001 6.43669 19.6664 6.64427 19.8776L16.4327 29.6633C17.1778 30.3985 18.1825 30.8107 19.2292 30.8106C20.2844 30.8106 21.2963 30.3918 22.0428 29.6461L25.7623 25.9306C26.1206 25.5726 26.4048 25.1476 26.5987 24.6797C26.7926 24.2118 26.8924 23.7103 26.8923 23.2038V23.1624C26.892 22.9848 26.8799 22.8074 26.856 22.6313C26.7423 23.4664 26.358 24.2411 25.762 24.8369Z" fill="#C18423"/>
    <path d="M15.8626 4.96931L17.5394 4.27245L19.064 5.2586L18.9193 3.44858L20.3284 2.30329L18.5623 1.88151L17.9085 0.1875L16.9616 1.73687L15.1484 1.83517L16.3294 3.21452L15.8626 4.96931Z" fill="#96D6E4"/>
    <path d="M16.5156 6.86281L17.5885 6.64844L18.1351 9.38391L17.0622 9.59828L16.5156 6.86281ZM18.6811 11.0375L19.2266 7.75764L20.3051 7.93701L19.7596 11.2169L18.6811 11.0375Z" fill="#7B81C6"/>
    <path d="M8.2987 10.5781C8.26719 10.6096 8.23827 10.6427 8.20983 10.6761C8.42749 10.663 8.64545 10.6962 8.84931 10.7736C9.05317 10.851 9.23829 10.9707 9.39245 11.1249L15.955 17.6874L14.5878 19.0546L9.39245 13.8593C9.24882 13.7157 9.0783 13.6017 8.89064 13.524C8.70297 13.4463 8.50183 13.4063 8.2987 13.4063C8.09557 13.4063 7.89443 13.4463 7.70677 13.524C7.5191 13.6017 7.34858 13.7157 7.20495 13.8593C7.17344 13.8908 7.14452 13.9239 7.11608 13.9573C7.33374 13.9442 7.5517 13.9775 7.75556 14.0549C7.95942 14.1322 8.14454 14.252 8.2987 14.4062L13.7675 19.8749L12.4003 21.2421L8.85016 17.692C8.55885 17.4007 8.16378 17.2371 7.75183 17.2371C7.33988 17.2371 6.9448 17.4007 6.6535 17.692C6.62253 17.723 6.59416 17.7555 6.56641 17.7883C6.78536 17.7748 7.00469 17.808 7.20985 17.8857C7.41501 17.9633 7.60131 18.0837 7.75641 18.2389L12.4003 22.8827L17.5956 17.6874L10.4862 10.5781C10.3426 10.4344 10.1721 10.3205 9.98439 10.2427C9.79672 10.165 9.59558 10.125 9.39245 10.125C9.18932 10.125 8.98818 10.165 8.80052 10.2427C8.61285 10.3205 8.44233 10.4344 8.2987 10.5781Z" fill="#F6E597"/>
    <path d="M22.4963 19.3281V13.039C22.4964 12.6252 22.6306 12.2225 22.8787 11.8914C23.1268 11.5602 23.4756 11.3184 23.8727 11.202C23.5873 11.1185 23.2865 11.1026 22.9939 11.1556C22.7014 11.2086 22.4252 11.3289 22.1873 11.5072C21.9493 11.6855 21.7562 11.9167 21.6232 12.1826C21.4902 12.4485 21.4209 12.7417 21.4209 13.039V17.1406L13.7646 9.48431C13.621 9.34067 13.4505 9.22673 13.2628 9.149C13.0752 9.07126 12.874 9.03125 12.6709 9.03125C12.4678 9.03125 12.2666 9.07126 12.079 9.149C11.8913 9.22673 11.7208 9.34067 11.5771 9.48431C11.5456 9.51582 11.5167 9.54891 11.4883 9.58234C11.7059 9.56925 11.9239 9.60248 12.1278 9.67986C12.3316 9.75723 12.5167 9.87697 12.6709 10.0312L21.4209 18.7812V19.3281L20.0381 20.7109C19.5346 21.2144 19.2517 21.8973 19.2517 22.6093C19.2517 23.3213 19.5346 24.0042 20.0381 24.5077L22.5231 26.9745L23.0615 26.4374L21.1133 24.5077C20.6098 24.0042 20.327 23.3213 20.327 22.6093C20.327 21.8973 20.6098 21.2144 21.1133 20.7109L22.4963 19.3281Z" fill="#F6E597"/>
</svg>
