<svg width="50" height="50" viewBox="0 0 50 50" fill="none"
    xmlns="http://www.w3.org/2000/svg">
    <path d="M24.9957 50C24.9957 28.8991 21.0923 25.0043 0 25.0043C21.1008 25.0043 24.9957 21.1008 24.9957 0.00854492C24.9957 21.1094 28.8992 25.0043 50 25.0043C28.8992 24.9957 24.9957 28.8991 24.9957 50Z" fill="#D21C23"/>
    <path d="M38.7433 20.279C38.7433 13.0371 37.4079 11.7017 30.166 11.7017C37.4079 11.7017 38.7433 10.3663 38.7433 3.12439C38.7433 10.3663 40.0787 11.7017 47.3206 11.7017C40.0787 11.7017 38.7433 13.0456 38.7433 20.279Z" fill="#D21C23"/>
    <path d="M9.80975 46.0795C9.80975 40.9091 8.85101 39.9504 3.68066 39.9504C8.85101 39.9504 9.80975 38.9916 9.80975 33.8213C9.80975 38.9916 10.7685 39.9504 15.9388 39.9504C10.7685 39.9589 9.80975 40.9091 9.80975 46.0795Z" fill="#D21C23"/>
</svg>
